<?xml version="1.0" encoding="UTF-8"?>
<svg enable-background="new 0 0 303.9 303.9" version="1.1" viewBox="0 0 303.9 303.9" xml:space="preserve" xmlns="http://www.w3.org/2000/svg">
	<style type="text/css">
	.st0{fill:none;stroke:url(#b);stroke-width:22;-webkit-animation-name:spin;-webkit-animation-duration:.5s;-webkit-animation-iteration-count:infinite;-webkit-animation-timing-function:linear;-moz-animation-name:spin;-moz-animation-duration:.5s;-moz-animation-iteration-count:infinite;-moz-animation-timing-function:linear;-ms-animation-name:spin;-ms-animation-duration:500ms;-ms-animation-iteration-count:infinite;-ms-animation-timing-function:linear;animation-name:spin;animation-duration:.5s;animation-iteration-count:infinite;animation-timing-function:linear}.st1{fill:url(#SVGID_00000157989454050936090000000010983164608231141774_)}.st2{fill:url(#SVGID_00000113318436844295914100000011510368254679093674_)}.st3{fill:url(#SVGID_00000023239625763718306750000010467877365813397675_)}.st4{fill:url(#SVGID_00000060008662476608701780000013864806792020347833_)}.st5{fill:url(#SVGID_00000130635890806165705090000012498730293737122442_)}.st6{fill:url(#SVGID_00000163760798638938038040000014329611125765858204_)}.st7{fill:url(#SVGID_00000033341566119930136130000003923554531696502414_)}@-ms-keyframes spin{from{-ms-transform:rotate(0)}to{-ms-transform:rotate(360deg)}}@-moz-keyframes spin{from{-moz-transform:rotate(0)}to{-moz-transform:rotate(360deg)}}@-webkit-keyframes spin{from{-webkit-transform:rotate(0)}to{-webkit-transform:rotate(360deg)}}@keyframes spin{from{transform:rotate(0)}to{transform:rotate(360deg)}}
	</style>
	<g transform="translate(151.95 151.95)">
		<linearGradient id="b" x2="303.9" y1="151.95" y2="151.95" gradientUnits="userSpaceOnUse">
			<stop stop-color="#BC4AFF" offset="0" />
			<stop stop-color="#33B1FF" offset="1" />
		</linearGradient>
		<circle class="st0" r="140.95" />
	</g>
	<linearGradient id="a" x1="65.485" x2="215.95" y1="146.58" y2="146.58" gradientUnits="userSpaceOnUse">
		<stop stop-color="#33B1FF" offset="0" />
		<stop stop-color="#34B1FF" offset=".0022625" />
		<stop stop-color="#5D91FF" offset=".1599" />
		<stop stop-color="#7F78FF" offset=".3199" />
		<stop stop-color="#9A64FF" offset=".4829" />
		<stop stop-color="#AD55FF" offset=".6487" />
		<stop stop-color="#B84DFF" offset=".8188" />
		<stop stop-color="#BC4AFF" offset="1" />
	</linearGradient>
	<path d="m81.42 112.51v-18.01h-4.76v-11h4.76v-13.6l13.6-1.39v14.99h10.22v11h-10.22v15.5c0 2.77 0.61 4.85 3.2 4.85 0.87 0 2.68-0.35 4.16-1.13l3.38 10.04c-2.94 1.65-5.98 2.86-11.86 2.86-7.28 0-12.48-4.5-12.48-14.11z" fill="url(#a)" />
	<path d="m110.78 70.51c0-4.68 3.81-7.88 8.49-7.88s8.49 3.2 8.49 7.88-3.81 7.88-8.49 7.88-8.49-3.21-8.49-7.88zm1.73 12.99h13.42v42.34h-13.42v-42.34z" fill="url(#a)" />
	<path d="m175.63 108.26h-28.75c0.95 4.76 5.02 7.36 9.96 7.36 3.9 0 7.36-1.73 10.22-5.11l7.19 8.05c-3.55 4.5-10.04 8.05-18.88 8.05-12.56 0-21.99-8.83-21.99-21.99 0-12.82 9.09-22 21.48-22s21.13 9.01 21.13 21.65c-0.01 1.22-0.18 3.13-0.36 3.99zm-28.75-7.96 15.85-0.09c-0.87-4.16-3.64-6.75-7.71-6.75s-7.27 2.42-8.14 6.84z" fill="url(#a)" />
	<path d="m224.3 100.47v25.37h-13.6v-22.08c0-6.93-2.17-9.01-6.75-9.01s-7.71 3.2-7.71 9.78v21.3h-13.59v-42.33h13.59v5.11c3.38-3.9 7.97-5.98 12.82-5.98 8.83 0 15.24 4.42 15.24 17.84z" fill="url(#a)" />
	<path d="m110.51 166.02v63.73h-12.81v-4.59h-0.17c-2.86 3.55-6.93 5.37-12.12 5.37-11.6 0-19.92-8.83-19.92-21.91 0-12.99 8.4-22.08 19.31-22.08 4.76 0 9.01 1.82 12.04 5.37h0.17v-25.89h13.5zm-12.99 42.61c0-5.8-3.81-10.04-9.27-10.04-5.2 0-9.09 4.07-9.09 10.04s3.81 10.04 9.09 10.04 9.27-3.98 9.27-10.04z" fill="url(#a)" />
	<path d="m161.09 204.38v25.37h-13.6v-22.08c0-6.93-2.17-9.01-6.75-9.01s-7.71 3.2-7.71 9.78v21.3h-13.59v-42.34h13.59v5.11c3.38-3.9 7.97-5.98 12.82-5.98 8.83 0.02 15.24 4.43 15.24 17.85z" fill="url(#a)" />
	<path d="m236.77 205.08v24.68h-13.51v-21.56c0-5.54-1.56-9.52-6.15-9.52-3.98 0-7.1 3.29-7.1 9.87v21.22h-13.51v-21.56c0-5.54-1.56-9.52-6.15-9.52-4.24 0-7.27 3.29-7.27 9.87v21.22h-13.59v-42.34h13.59v4.76h0.17c3.2-3.72 7.53-5.63 11.86-5.63 5.2 0 9.53 1.82 12.12 6.15h0.17c3.46-4.07 8.49-6.15 14.29-6.15 8.93-0.02 15.08 5.17 15.08 18.51z" fill="url(#a)" />
</svg>